<?xml version="1.0" standalone="no"?>
<!DOCTYPE svg PUBLIC "-//W3C//DTD SVG 20010904//EN"
 "http://www.w3.org/TR/2001/REC-SVG-20010904/DTD/svg10.dtd">
<svg version="1.0" xmlns="http://www.w3.org/2000/svg"
 width="200.000000pt" height="200.000000pt" viewBox="0 0 376.000000 376.000000"
 preserveAspectRatio="xMidYMid meet">

<g transform="translate(0.000000,376.000000) scale(0.05000,-0.050000)"
fill="#000000" stroke="none">
<path d="M3601 6655 c-251 -57 -454 -195 -587 -400 -82 -127 -121 -227 -149
-386 -19 -107 -19 -163 1 -274 53 -307 232 -558 494 -694 83 -43 216 -86 298
-97 l52 -7 0 -211 0 -211 -298 -156 c-242 -126 -298 -160 -300 -178 -2 -12 1
-27 6 -34 5 -7 15 -46 21 -87 41 -264 81 -395 148 -492 18 -26 33 -50 33 -54
0 -11 108 -131 253 -278 l147 -151 0 -402 0 -403 -1000 0 -1000 0 0 -565 0
-565 2015 0 2015 0 0 565 0 565 -975 0 -975 0 0 394 0 394 128 129 c134 137
282 297 282 307 0 3 15 27 33 53 57 83 96 181 120 308 9 44 28 142 42 217 15
75 24 141 21 146 -3 5 -147 73 -321 152 l-315 143 0 207 0 207 88 6 c340 22
674 288 785 626 38 113 60 261 53 348 -33 410 -282 733 -656 854 -85 28 -111
31 -245 35 -107 3 -168 0 -214 -11z m275 -89 c58 -27 127 -90 173 -158 27 -40
101 -187 101 -200 0 -2 -33 2 -72 10 -40 8 -156 17 -258 19 -181 5 -215 2
-388 -32 -62 -13 -63 -12 -56 9 12 39 86 179 117 220 37 50 121 120 168 140
54 24 155 20 215 -8z m262 -52 c194 -89 358 -263 436 -462 l25 -62 -42 34
c-57 46 -144 92 -255 135 l-94 36 -37 91 c-34 82 -85 181 -100 194 -3 3 -19
23 -35 44 l-29 39 29 -7 c16 -4 62 -23 102 -42z m-650 9 c-58 -64 -121 -187
-171 -334 -3 -10 -30 -25 -59 -34 -67 -22 -189 -86 -241 -127 -39 -31 -39 -31
-32 -7 42 143 171 315 311 415 50 35 193 112 213 114 3 0 -7 -12 -21 -27z
m467 -333 c79 -10 203 -35 209 -41 3 -2 14 -41 26 -85 42 -163 42 -495 0 -658
-12 -44 -23 -82 -25 -84 -16 -17 -275 -52 -380 -52 -94 0 -249 20 -367 46 -76
17 -71 11 -93 135 -22 121 -30 327 -16 444 13 121 30 217 40 234 8 12 153 47
256 60 85 12 267 12 350 1z m313 -69 c9 -5 57 -28 105 -52 102 -50 182 -118
227 -191 29 -47 32 -58 32 -139 0 -77 -3 -93 -28 -139 -50 -92 -187 -194 -323
-241 -30 -11 -55 -18 -56 -17 -1 2 7 44 18 93 16 72 20 131 21 295 1 198 -5
255 -41 383 -5 19 16 23 45 8z m-973 -28 c-24 -63 -30 -137 -30 -358 0 -222 6
-294 31 -359 6 -17 4 -18 -21 -12 -51 13 -171 85 -231 140 -84 76 -104 121
-104 235 0 81 3 98 26 136 37 64 130 144 224 193 89 46 116 52 105 25z m1284
-664 c-91 -238 -286 -427 -526 -510 l-53 -18 32 42 c18 23 35 44 39 47 18 17
71 119 103 200 l38 95 61 18 c101 30 290 131 312 167 14 23 12 7 -6 -41z
m-1499 -31 c7 -9 109 -56 180 -83 50 -19 55 -23 67 -65 7 -25 24 -69 38 -98
14 -29 25 -55 25 -59 0 -9 70 -115 93 -140 28 -31 8 -29 -66 8 -199 100 -377
300 -432 487 -6 21 -4 21 42 -10 26 -18 50 -36 53 -40z m525 -159 c124 -13
358 -6 473 14 39 7 72 11 72 9 0 -2 -16 -38 -35 -78 -95 -204 -212 -304 -356
-304 -99 0 -180 47 -265 155 -31 39 -106 179 -118 221 -7 21 -6 22 56 9 35 -8
113 -19 173 -26z m483 -1289 c2 -17 -43 -101 -145 -275 -129 -217 -152 -250
-174 -253 -23 -3 -43 15 -143 130 -91 104 -116 138 -114 158 2 19 10 26 29 28
23 3 40 -13 119 -102 51 -59 95 -106 99 -106 3 0 58 89 121 196 63 108 123
210 133 226 14 23 23 29 45 26 20 -2 28 -9 30 -28z m1582 -2375 l0 -485 -1935
0 -1935 0 0 485 0 485 1935 0 1935 0 0 -485z"/>
<path d="M4456 1767 c-11 -8 -17 -22 -14 -38 l3 -24 423 -3 c288 -1 429 1 443
9 14 7 19 18 17 37 l-3 27 -425 3 c-340 2 -430 0 -444 -11z"/>
<path d="M2184 1716 c-17 -8 -44 -31 -60 -52 -26 -33 -29 -46 -29 -109 0 -63
3 -76 29 -109 73 -96 214 -89 284 14 20 30 23 44 20 102 -4 72 -20 104 -71
142 -34 25 -129 32 -173 12z m135 -83 c44 -37 43 -126 -1 -158 -35 -24 -95
-19 -123 10 -35 34 -35 101 0 139 29 32 91 36 124 9z"/>
<path d="M2554 1716 c-17 -8 -44 -31 -60 -52 -26 -33 -29 -46 -29 -109 0 -63
3 -76 29 -109 73 -96 214 -89 284 14 20 30 23 44 20 102 -4 72 -20 104 -71
142 -34 25 -129 32 -173 12z m135 -83 c44 -37 43 -126 -1 -158 -35 -24 -95
-19 -123 10 -35 34 -35 101 0 139 29 32 91 36 124 9z"/>
<path d="M2934 1716 c-17 -8 -44 -31 -60 -52 -26 -33 -29 -46 -29 -109 0 -63
3 -76 29 -109 73 -96 214 -89 284 14 20 30 23 44 20 102 -4 72 -20 104 -71
142 -34 25 -129 32 -173 12z m135 -83 c44 -37 43 -126 -1 -158 -35 -24 -95
-19 -123 10 -35 34 -35 101 0 139 29 32 91 36 124 9z"/>
<path d="M4446 1417 c-11 -8 -17 -22 -14 -38 l3 -24 428 -3 c292 -1 434 1 448
9 14 7 19 18 17 37 l-3 27 -430 3 c-344 2 -435 0 -449 -11z"/>
</g>
</svg>
